{"title":"StreetDance.3D.DvDRip.XviD.Ac3.Feel-Free","uid":5842005,"size":2251211187,"categoryP":"video","categoryS":"movies","magnet":"?xt=urn:btih:15a728e88dfe089dd5d3bbd940e4252c4adca083&amp;dn=StreetDance.3D.DvDRip.XviD.Ac3.Feel-Free&amp;tr=udp%3A%2F%2Ftracker.openbittorrent.com%3A80&amp;tr=udp%3A%2F%2Fopen.demonii.com%3A1337&amp;tr=udp%3A%2F%2Ftracker.coppersurfer.tk%3A6969&amp;tr=udp%3A%2F%2Fexodus.desync.com%3A6969","seeders":0,"leechers":2,"uploader":"neon","files":-1,"time":1285004522,"description":"Genre:Drama\nLanguage:English\n &lt;a href=&quot; http://www.imdb.com/title/tt1447972/&quot; rel=&quot;nofollow&quot; target=&quot;_NEW&quot;&gt; http://www.imdb.com/title/tt1447972/&lt;/a&gt;\nSource Video:RUS\nSource Audio:DVDScr\n\nGeneral\nComplete name :StreetDance.3D.DvDRip.XviD.Ac3.Feel-Free\nFormat : AVI\nFormat/Info : Audio Video Interleave\nFormat profile : OpenDML\nFile size : 2.10 GiB\nDuration : 1h 38mn\nOverall bit rate : 3 049 Kbps\nVideo #0\nMuxing mode : Packed bitstream\nCodec ID : XVID\nCodec ID/Hint : XviD\nDuration : 1h 38mn\nBit rate : 2 589 Kbps\nWidth : 652 pixels\nHeight : 352 pixels\nDisplay aspect ratio : 1.852\nFrame rate : 23.976 fps\nResolution : 24 bits\nColorimetry : 4:2:0\nScan type : Progressive\nBits/(Pixel*Frame) : 0.470\nStream size : 1.78 GiB (85%)\nWriting library : XviD 1.2.1 (UTC 2008-12-04)\nAudio #1\nID : 1\nFormat : AC-3\nFormat/Info : Audio Coding 3\nCodec ID : 2000\nDuration : 1h 38mn\nBit rate mode : Constant\nBit rate : 448 Kbps\nChannel(s) : 6 channels\nChannel positions : Front: L C R, Surround: L R, LFE\nSampling rate : 48.0 KHz\nStream size : 315 MiB (15%)\nAlignment : Split accross interleaves\nInterleave, duration : 42 ms (1.00 video frame)\nInterleave, preload duration : 500 ms\n\nPlot\nIn order to win the Street Dance Championships, a dance crew is forced to work with ballet dancers from the Royal Dance School in exchange for rehearsal space","torrent":{"xt":"urn:btih:15a728e88dfe089dd5d3bbd940e4252c4adca083","amp;dn":"StreetDance.3D.DvDRip.XviD.Ac3.Feel-Free","amp;tr":["udp%3A%2F%2Ftracker.openbittorrent.com%3A80","udp%3A%2F%2Fopen.demonii.com%3A1337","udp%3A%2F%2Ftracker.coppersurfer.tk%3A6969","udp%3A%2F%2Fexodus.desync.com%3A6969"],"infoHash":"15a728e88dfe089dd5d3bbd940e4252c4adca083","infoHashBuffer":{"type":"Buffer","data":[21,167,40,232,141,254,8,157,213,211,187,217,64,228,37,44,74,220,160,131]},"announce":[],"urlList":[]}}